<svg width="1048" height="180" viewBox="0 0 1048 180" fill="none" xmlns="http://www.w3.org/2000/svg">
<g clip-path="url(#clip0_77_28)">
<path d="M117.794 32.9218L117.727 32.5H117.3H62.85H62.4115L62.3543 32.9347L50.5615 122.5H50.2146L33.3414 32.9075L33.2646 32.5H32.85H0.75H0.143159L0.259232 33.0957L23.0592 150.096L23.138 150.5H23.55H77.1H77.5378L77.5956 150.066L89.5378 60.5H89.8729L104.056 150.078L104.123 150.5H104.55H157.65H158.064L158.141 150.093L180.341 33.0932L180.454 32.5H179.85H149.25H148.833L148.758 32.9099L132.333 122.5H131.977L117.794 32.9218ZM200.115 32.5H199.615V33V150V150.5H200.115H296.415H296.915V150V123V122.5H296.415H232.115V104H290.115H290.615V103.5V78V77.5H290.115H232.115V60.5H296.115H296.615V60V33V32.5H296.115H200.115ZM321.979 32.5H321.479V33V150V150.5H321.979H392.629C406.947 150.5 416.416 148.974 422.286 144.239C428.193 139.475 430.329 131.577 430.329 119.25C430.329 110.325 428.21 103.548 423.822 98.7741C419.972 94.587 414.431 92.0011 407.206 90.8173C412.976 89.4935 417.463 86.9452 420.619 82.9999C424.315 78.3796 426.129 71.9151 426.129 63.45C426.129 51.2829 424.222 43.4705 418.969 38.7409C413.733 34.0268 405.303 32.5 392.629 32.5H321.979ZM454.768 150V150.5H455.268H515.718C537.095 150.5 550.653 147.586 558.818 138.637C566.968 129.704 569.618 114.891 569.618 91.5C569.618 68.1089 566.968 53.2957 558.818 44.363C550.653 35.4138 537.095 32.5 515.718 32.5H455.268H454.768V33V150ZM592.598 150V150.5H593.098H624.598H625.098V150V33V32.5H624.598H593.098H592.598V33V150ZM682.033 110.7V110.2H681.533H648.533H648.033V110.7C648.033 127.155 650.919 137.654 659.621 143.973C663.952 147.119 669.683 149.196 677.114 150.49C684.545 151.784 693.71 152.3 704.933 152.3C715.855 152.3 724.77 151.887 731.997 150.846C739.223 149.806 744.795 148.133 749.01 145.591C757.507 140.466 760.333 131.909 760.333 118.5C760.333 112.575 759.598 107.579 757.781 103.291C755.961 98.9939 753.067 95.436 748.8 92.369C740.3 86.2597 726.322 82.083 704.433 77.81C696.472 76.1577 691.488 74.7826 688.492 73.0838C687.008 72.2419 686.043 71.3371 685.443 70.3071C684.844 69.2777 684.583 68.078 684.583 66.6C684.583 64.3931 684.726 62.7467 685.194 61.4945C685.648 60.2774 686.417 59.4136 687.747 58.7831C689.107 58.1384 691.059 57.7361 693.87 57.5006C696.674 57.2658 700.284 57.2 704.933 57.2C709.658 57.2 713.312 57.3036 716.143 57.6968C718.976 58.0903 720.923 58.7665 722.282 59.864C723.627 60.9504 724.456 62.5001 724.948 64.7788C725.442 67.0704 725.583 70.0515 725.583 73.95V74.45H726.083H759.083H759.583V73.95C759.583 56.8302 756.814 45.9239 748.461 39.357C744.297 36.0836 738.789 33.9235 731.648 32.579C724.509 31.2346 715.708 30.7 704.933 30.7C694.236 30.7 685.497 31.1408 678.407 32.2458C671.319 33.3506 665.846 35.124 661.705 37.8118C653.366 43.2237 650.583 52.2274 650.583 66.3C650.583 71.77 651.186 76.3668 652.715 80.2999C654.247 84.2431 656.701 87.4947 660.361 90.2851C667.646 95.8393 679.72 99.5673 698.835 103.39L698.836 103.391C709.871 105.567 716.78 107.357 720.929 109.423C722.995 110.451 724.336 111.529 725.164 112.72C725.986 113.902 726.333 115.24 726.333 116.85C726.333 118.981 726.18 120.552 725.679 121.739C725.193 122.888 724.363 123.715 722.893 124.319C721.395 124.934 719.249 125.31 716.167 125.527C713.092 125.744 709.133 125.8 704.033 125.8C699.008 125.8 695.116 125.706 692.097 125.349C689.072 124.991 686.985 124.375 685.529 123.375C684.096 122.391 683.224 120.999 682.707 118.963C682.185 116.905 682.033 114.223 682.033 110.7ZM900.547 100.346L900.543 99.85H900.047H867.047H866.54L866.547 100.356C866.622 106.206 866.508 110.713 865.93 114.195C865.353 117.671 864.322 120.066 862.609 121.743C860.895 123.422 858.433 124.446 854.857 125.043C851.278 125.64 846.647 125.8 840.647 125.8C834.61 125.8 829.962 125.583 826.372 124.783C822.797 123.986 820.315 122.621 818.561 120.351C816.794 118.063 815.718 114.797 815.092 110.097C814.466 105.401 814.297 99.3373 814.297 91.5C814.297 83.6628 814.466 77.5986 815.092 72.9028C815.718 68.2033 816.794 64.9369 818.561 62.6494C820.315 60.3789 822.797 59.0136 826.372 58.2169C829.962 57.4168 834.61 57.2 840.647 57.2C846.647 57.2 851.279 57.3601 854.857 57.9527C858.434 58.5449 860.897 59.56 862.611 61.2216C864.323 62.8805 865.354 65.2463 865.93 68.6797C866.508 72.1185 866.622 76.5691 866.547 82.3435L866.54 82.85H867.047H900.047H900.543L900.547 82.3537C900.697 61.8712 897.821 48.8682 888.729 41.0399C879.667 33.2365 864.559 30.7 840.647 30.7C816.725 30.7 801.564 33.6875 792.423 42.8851C783.284 52.0816 780.297 67.3541 780.297 91.5C780.297 115.646 783.284 130.918 792.423 140.115C801.564 149.313 816.725 152.3 840.647 152.3C864.56 152.3 879.668 149.726 888.731 141.865C897.821 133.981 900.697 120.904 900.547 100.346ZM353.979 125.5V103.1H383.029C387.86 103.1 391.202 103.996 393.336 105.812C395.451 107.612 396.479 110.405 396.479 114.45C396.479 117.037 396.393 119.007 396.081 120.52C395.771 122.021 395.249 123.022 394.408 123.722C393.556 124.432 392.314 124.887 390.452 125.156C388.593 125.425 386.178 125.5 383.029 125.5H353.979ZM353.979 78.1V57.5H380.029C382.916 57.5 385.124 57.5662 386.821 57.8135C388.52 58.0611 389.642 58.482 390.409 59.1416C391.165 59.7924 391.639 60.7313 391.92 62.1589C392.203 63.5968 392.279 65.4747 392.279 67.95C392.279 71.6223 391.362 74.1114 389.458 75.704C387.531 77.3151 384.49 78.1 380.029 78.1H353.979ZM487.265 60.5H512.418C517.742 60.5 521.835 60.6981 524.995 61.4225C528.138 62.1431 530.316 63.3749 531.856 65.4196C533.41 67.4826 534.36 70.4318 534.914 74.6826C535.467 78.9292 535.618 84.4128 535.618 91.5C535.618 98.5872 535.467 104.071 534.914 108.317C534.36 112.568 533.41 115.517 531.856 117.58C530.316 119.625 528.138 120.857 524.995 121.578C521.835 122.302 517.742 122.5 512.418 122.5H487.265L487.118 91.5024V91.4976L487.265 60.5ZM981.867 57.2C988.129 57.2 992.947 57.4167 996.666 58.2177C1000.37 59.0157 1002.94 60.3835 1004.74 62.6552C1006.57 64.9418 1007.67 68.2063 1008.31 72.9042C1008.95 77.5992 1009.12 83.6625 1009.12 91.5C1009.12 99.3376 1008.95 105.401 1008.31 110.096C1007.67 114.794 1006.57 118.058 1004.74 120.345C1002.94 122.616 1000.37 123.984 996.666 124.782C992.947 125.583 988.129 125.8 981.867 125.8C975.605 125.8 970.787 125.583 967.069 124.782C963.364 123.984 960.798 122.616 958.99 120.345C957.169 118.058 956.066 114.794 955.426 110.096C954.786 105.401 954.617 99.3376 954.617 91.5C954.617 83.6625 954.786 77.5992 955.426 72.9042C956.066 68.2063 957.169 64.9418 958.99 62.6552C960.798 60.3835 963.364 59.0157 967.069 58.2177C970.787 57.4167 975.605 57.2 981.867 57.2ZM920.617 91.5C920.617 115.647 923.642 130.921 932.915 140.118C942.187 149.313 957.572 152.3 981.867 152.3C1006.16 152.3 1021.55 149.313 1030.82 140.118C1040.09 130.921 1043.12 115.647 1043.12 91.5C1043.12 67.3533 1040.09 52.0791 1030.82 42.8825C1021.55 33.6873 1006.16 30.7 981.867 30.7C957.572 30.7 942.187 33.6873 932.915 42.8825C923.642 52.0791 920.617 67.3533 920.617 91.5Z" stroke="#121212"/>
</g>
<defs>
<clipPath id="clip0_77_28">
<rect width="1048" height="180" fill="white"/>
</clipPath>
</defs>
</svg>
